<svg width="10" height="7" viewBox="0 0 10 7" fill="none" xmlns="http://www.w3.org/2000/svg">
<path fill-rule="evenodd" clip-rule="evenodd" d="M8.80813 0.818563L8.43727 0.44043L3.74977 5.21984L1.56227 2.98945L1.19141 3.36758L3.74977 5.97611L8.80813 0.818563Z" fill="white"/>
<path d="M8.43727 0.44043L8.61575 0.265378L8.43727 0.0833932L8.25878 0.265378L8.43727 0.44043ZM8.80813 0.818563L8.98661 0.993615L9.1583 0.818563L8.98661 0.643511L8.80813 0.818563ZM3.74977 5.21984L3.57128 5.39489L3.74977 5.57688L3.92825 5.39489L3.74977 5.21984ZM1.56227 2.98945L1.74075 2.8144L1.56227 2.63241L1.38378 2.8144L1.56227 2.98945ZM1.19141 3.36758L1.01292 3.19253L0.841236 3.36758L1.01292 3.54263L1.19141 3.36758ZM3.74977 5.97611L3.57128 6.15116L3.74977 6.33315L3.92825 6.15116L3.74977 5.97611ZM8.25878 0.615482L8.62964 0.993615L8.98661 0.643511L8.61575 0.265378L8.25878 0.615482ZM3.92825 5.39489L8.61575 0.615482L8.25878 0.265378L3.57128 5.04479L3.92825 5.39489ZM1.38378 3.1645L3.57128 5.39489L3.92825 5.04479L1.74075 2.8144L1.38378 3.1645ZM1.36989 3.54263L1.74075 3.1645L1.38378 2.8144L1.01292 3.19253L1.36989 3.54263ZM3.92825 5.80106L1.36989 3.19253L1.01292 3.54263L3.57128 6.15116L3.92825 5.80106ZM8.62964 0.643511L3.57128 5.80106L3.92825 6.15116L8.98661 0.993615L8.62964 0.643511Z" fill="white"/>
</svg>
