<svg width="14" height="14" viewBox="0 0 14 14" fill="none" xmlns="http://www.w3.org/2000/svg">
<path fill-rule="evenodd" clip-rule="evenodd" d="M5.80516 0.333328C8.82227 0.333328 11.277 2.78803 11.277 5.80514C11.277 7.14724 10.7784 8.36646 9.97472 9.31572L13.6667 13.0077L13.0077 13.6667L9.31568 9.97464C8.36565 10.7783 7.14738 11.277 5.80516 11.277C2.78808 11.277 0.333344 8.82333 0.333344 5.80514C0.333344 2.78695 2.78808 0.333328 5.80516 0.333328ZM10.3457 5.80514C10.3457 3.30115 8.30915 1.2646 5.80516 1.2646C3.30117 1.2646 1.26462 3.30115 1.26462 5.80514C1.26462 8.30913 3.30117 10.3457 5.80516 10.3457C8.30915 10.3457 10.3457 8.30913 10.3457 5.80514Z" fill="#121212"/>
</svg>
