<?xml version="1.0" standalone="no"?>
<!DOCTYPE svg PUBLIC "-//W3C//DTD SVG 20010904//EN"
 "http://www.w3.org/TR/2001/REC-SVG-20010904/DTD/svg10.dtd">
<svg version="1.0" xmlns="http://www.w3.org/2000/svg"
 width="1000.000000pt" height="1000.000000pt" viewBox="0 0 1000.000000 1000.000000"
 preserveAspectRatio="xMidYMid meet">
<metadata>
Created by potrace 1.14, written by Peter Selinger 2001-2017
</metadata>
<g transform="translate(0.000000,1000.000000) scale(0.100000,-0.100000)"
fill="#000000" stroke="none">
<path d="M0 5000 l0 -5000 5000 0 5000 0 0 5000 0 5000 -5000 0 -5000 0 0
-5000z m5865 649 c134 -25 209 -101 222 -224 11 -103 -41 -196 -135 -242 -51
-25 -68 -28 -157 -28 -81 0 -109 4 -146 21 -152 70 -197 261 -91 384 39 46 70
65 144 84 66 18 89 19 163 5z m-4021 -10 c61 -17 96 -58 96 -113 0 -33 -6 -52
-24 -73 l-24 -28 34 -22 c63 -43 70 -145 14 -201 -16 -16 -49 -34 -74 -41 -47
-11 -322 -16 -350 -5 -14 5 -16 36 -16 243 0 131 3 241 7 244 11 11 295 8 337
-4z m782 -9 c47 -23 67 -49 81 -101 13 -46 1 -95 -30 -127 -24 -25 -24 -29
-10 -47 8 -11 33 -56 55 -99 38 -75 39 -80 22 -93 -19 -14 -131 -18 -150 -5
-6 4 -26 36 -44 72 -39 80 -66 110 -97 110 -22 0 -23 -3 -23 -83 0 -51 -5 -88
-12 -95 -12 -12 -114 -17 -142 -6 -14 5 -16 36 -16 243 0 131 3 241 7 244 3 4
76 7 162 7 135 0 160 -3 197 -20z m891 -208 c56 -123 103 -233 103 -243 0 -18
-6 -20 -82 -17 l-81 3 -16 43 -15 42 -106 0 -105 0 -18 -45 -19 -45 -78 0
c-44 0 -81 4 -85 9 -4 8 144 343 201 454 15 28 15 28 106 25 l91 -3 104 -223z
m638 108 l120 -120 5 117 5 118 80 0 80 0 3 -234 c2 -164 -1 -238 -9 -247 -7
-9 -33 -14 -72 -14 l-61 0 -123 123 -123 123 0 -107 c0 -132 -5 -139 -94 -139
-35 0 -67 5 -74 12 -13 13 -18 469 -5 481 3 4 38 7 77 7 l71 0 120 -120z m959
106 c108 -33 174 -110 183 -213 7 -78 -9 -131 -57 -185 -60 -69 -90 -77 -289
-78 -93 -1 -175 1 -181 5 -11 7 -15 467 -3 478 13 14 298 7 347 -7z m1481
-106 l120 -120 5 117 5 118 80 0 80 0 3 -234 c2 -164 -1 -238 -9 -247 -7 -9
-33 -14 -73 -14 l-61 0 -122 124 -123 125 0 -109 c0 -131 -6 -140 -86 -140
-99 0 -94 -13 -94 254 0 128 3 236 7 239 3 4 38 7 77 7 l71 0 120 -120z
m-2453 -697 c28 -8 68 -33 95 -58 43 -39 46 -45 33 -59 -8 -8 -45 -23 -82 -33
-64 -17 -67 -17 -87 1 -22 20 -87 32 -126 22 -46 -12 -75 -53 -75 -105 0 -25
6 -53 13 -61 44 -56 121 -66 182 -24 37 25 41 26 98 13 32 -6 68 -20 79 -29
21 -17 21 -17 -21 -63 -132 -143 -423 -113 -503 51 -30 63 -30 160 -1 217 68
129 228 181 395 128z m2608 6 c138 -34 217 -184 171 -323 -35 -101 -141 -166
-275 -166 -97 0 -163 21 -218 70 -55 48 -80 105 -80 181 0 185 182 293 402
238z m792 0 c20 -5 58 -24 84 -42 135 -91 133 -306 -5 -397 -62 -42 -112 -53
-211 -48 -170 9 -270 101 -270 249 0 68 18 116 58 161 75 83 204 112 344 77z
m-5696 0 c60 -15 94 -56 94 -114 0 -32 -7 -52 -24 -72 l-24 -28 34 -22 c63
-43 70 -145 14 -201 -16 -16 -49 -34 -74 -41 -47 -11 -322 -16 -350 -5 -14 5
-16 36 -16 243 0 131 3 241 7 244 11 12 291 8 339 -4z m582 -171 l2 -178 103
0 c56 0 108 -4 115 -9 9 -5 12 -26 10 -67 l-3 -59 -175 -3 c-96 -1 -185 0
-197 3 l-23 5 0 239 c0 131 3 241 7 245 4 4 41 5 83 4 l75 -3 3 -177z m947 22
c39 -85 88 -190 108 -232 44 -97 38 -108 -57 -108 -69 0 -76 4 -97 63 l-13 37
-104 0 -103 0 -20 -44 c-22 -51 -31 -56 -109 -56 -92 0 -92 2 1 201 44 96 94
202 110 237 l28 63 92 -3 92 -3 72 -155z m1349 144 c3 -9 6 -52 6 -96 l0 -80
82 96 82 96 78 0 c59 0 80 -4 84 -14 4 -9 -28 -55 -80 -117 l-85 -102 48 -56
c165 -190 166 -193 135 -205 -9 -3 -49 -6 -90 -6 -85 0 -73 -8 -188 128 l-61
73 -3 -88 c-2 -48 -8 -93 -14 -100 -14 -17 -139 -18 -156 -1 -13 13 -18 441
-6 472 5 13 22 16 84 16 62 0 79 -3 84 -16z m786 -101 c25 -61 48 -114 51
-117 3 -3 27 44 54 105 27 60 54 114 61 120 19 15 115 7 126 -11 4 -8 30 -62
56 -120 l48 -104 50 119 51 120 76 3 c61 2 78 0 83 -12 3 -8 -42 -120 -99
-248 l-106 -233 -51 -3 -50 -3 -30 65 c-17 37 -44 96 -61 133 l-30 68 -64
-133 -64 -133 -52 3 -52 3 -104 233 c-58 128 -102 240 -99 248 4 12 22 14 83
12 l78 -3 45 -112z m2790 106 c164 -35 250 -212 173 -359 -35 -65 -91 -106
-162 -120 -77 -14 -324 -13 -339 2 -13 13 -18 469 -5 481 11 11 278 8 333 -4z"/>
<path d="M5721 5494 c-36 -26 -54 -77 -41 -123 14 -53 41 -74 103 -78 65 -5
96 11 121 61 16 32 17 44 7 75 -16 55 -42 74 -109 79 -42 2 -63 -1 -81 -14z"/>
<path d="M1670 5505 l0 -45 43 0 c47 0 67 13 67 45 0 32 -20 45 -67 45 l-43 0
0 -45z"/>
<path d="M1670 5310 l0 -50 53 0 c59 0 77 12 77 50 0 32 -32 50 -90 50 l-40 0
0 -50z"/>
<path d="M2430 5495 l0 -45 43 0 c48 0 67 13 67 47 0 27 -27 43 -74 43 -36 0
-36 0 -36 -45z"/>
<path d="M3292 5427 c-12 -29 -22 -56 -22 -60 0 -4 23 -7 50 -7 28 0 50 3 50
7 0 14 -44 113 -50 113 -3 0 -16 -24 -28 -53z"/>
<path d="M4930 5405 l0 -138 57 7 c102 12 133 41 133 126 0 84 -40 126 -132
136 l-58 7 0 -138z"/>
<path d="M6554 4676 c-26 -26 -34 -42 -34 -71 0 -73 44 -115 121 -115 74 0
119 41 119 110 0 71 -45 110 -126 110 -39 0 -51 -5 -80 -34z"/>
<path d="M7348 4681 c-29 -26 -33 -35 -33 -81 0 -46 4 -55 34 -82 31 -28 38
-30 94 -26 78 6 107 35 107 106 -1 75 -42 112 -124 112 -36 0 -52 -6 -78 -29z"/>
<path d="M1670 4705 l0 -45 39 0 c57 0 71 8 71 41 0 34 -23 49 -74 49 -36 0
-36 0 -36 -45z"/>
<path d="M1670 4506 l0 -56 34 0 c18 0 47 5 65 11 25 9 31 17 31 39 0 37 -18
49 -79 57 l-51 6 0 -57z"/>
<path d="M3181 4620 c-13 -33 -22 -63 -19 -66 3 -3 28 -4 56 -2 l50 3 -26 63
c-14 34 -28 62 -31 62 -4 0 -17 -27 -30 -60z"/>
<path d="M8140 4600 l0 -130 33 0 c49 0 105 19 127 42 15 17 20 36 20 81 0 99
-36 137 -130 137 l-50 0 0 -130z"/>
</g>
</svg>
